<svg width="231" height="64" viewBox="0 0 231 64" fill="none" xmlns="http://www.w3.org/2000/svg">
<g clip-path="url(#clip0_12_629)">
<path d="M224.317 0.873291H6.3638C3.1961 0.873291 0.628174 3.21113 0.628174 6.095V58.3121C0.628174 61.196 3.1961 63.5338 6.3638 63.5338H224.317C227.485 63.5338 230.053 61.196 230.053 58.3121V6.095C230.053 3.21113 227.485 0.873291 224.317 0.873291Z" fill="#151515"/>
<path fill-rule="evenodd" clip-rule="evenodd" d="M48.9355 19.3685C53.7993 19.3685 56.908 23.6677 56.908 23.6677C56.908 23.6677 52.1666 26.021 52.1666 31.1278C52.1666 37.1902 58.1259 38.9552 58.1259 38.9552C58.1259 38.9552 53.4227 49.148 48.1382 49.148C45.1672 49.148 44.9684 47.5867 41.0203 47.5867C37.5904 47.5867 36.4357 49.1462 33.824 49.1462C28.8379 49.1462 22.3987 39.2076 22.3987 31.1226C22.3987 22.7278 28.9182 19.3651 33.0058 19.3651C36.5943 19.3651 38.0913 21.2971 40.9783 21.2971C43.4121 21.2971 45.3278 19.3651 48.9355 19.3651V19.3685ZM48.0981 10.8049C48.8112 14.9231 44.7256 20.0126 39.8388 19.8472C39.1218 14.6133 44.3891 11.0869 48.0943 10.8102L48.0981 10.8049Z" fill="white"/>
<mask id="mask0_12_629" style="mask-type:luminance" maskUnits="userSpaceOnUse" x="72" y="11" width="138" height="46">
<path d="M72.637 11.0574H209.489V56.6534H72.637V11.0591V11.0574Z" fill="white"/>
</mask>
<g mask="url(#mask0_12_629)">
<path fill-rule="evenodd" clip-rule="evenodd" d="M85.2439 41.7314L83.3129 36.2381C83.1083 35.6812 82.724 34.3583 82.1619 32.2783H82.0931C81.8637 33.173 81.5042 34.4941 81.0071 36.2416L79.1087 41.7366H85.2458L85.2439 41.7314ZM91.922 50.5039H88.0218L85.8882 44.3248H78.4682L76.432 50.5039H72.637L79.9919 29.4656H84.5326L91.922 50.5056V50.5039Z" fill="white"/>
</g>
<mask id="mask1_12_629" style="mask-type:luminance" maskUnits="userSpaceOnUse" x="72" y="11" width="138" height="46">
<path d="M72.637 11.0574H209.489V56.6534H72.637" fill="white"/>
</mask>
<g mask="url(#mask1_12_629)">
<path fill-rule="evenodd" clip-rule="evenodd" d="M107.07 42.856C107.07 41.38 106.71 40.1616 105.988 39.2043C105.196 38.2069 104.133 37.7074 102.801 37.7074C101.898 37.7074 101.08 37.9859 100.344 38.5341C99.6076 39.0882 99.0999 39.8535 98.9042 40.7046C98.7894 41.1224 98.7321 41.46 98.7321 41.7316V44.2624C98.7321 45.3659 99.0953 46.2988 99.8333 47.0595C100.567 47.8183 101.522 48.1995 102.695 48.1995C104.072 48.1995 105.146 47.7087 105.915 46.734C106.684 45.754 107.068 44.4643 107.068 42.8612M110.796 42.7394C110.796 45.3189 110.037 47.3571 108.515 48.8557C107.152 50.1855 105.456 50.8522 103.437 50.8522C101.258 50.8522 99.6899 50.135 98.734 48.6991V56.6604H95.0823V40.3269C95.0823 38.703 95.0364 37.0407 94.9485 35.3367H98.1662L98.3707 37.7457H98.4396C99.6632 35.932 101.512 35.0251 103.997 35.0251C105.94 35.0251 107.561 35.7336 108.859 37.1486C110.156 38.5672 110.806 40.4296 110.806 42.7394" fill="white"/>
</g>
<mask id="mask2_12_629" style="mask-type:luminance" maskUnits="userSpaceOnUse" x="72" y="11" width="138" height="46">
<path d="M72.637 11.0574H209.489V56.6534H72.637" fill="white"/>
</mask>
<g mask="url(#mask2_12_629)">
<path fill-rule="evenodd" clip-rule="evenodd" d="M126.016 42.856C126.016 41.38 125.653 40.1616 124.927 39.2043C124.137 38.2069 123.078 37.7074 121.745 37.7074C120.841 37.7074 120.025 37.9859 119.287 38.5341C118.55 39.0879 118.043 39.8534 117.849 40.7046C117.734 41.1224 117.677 41.46 117.677 41.7316V44.2624C117.677 45.3659 118.044 46.2988 118.776 47.0595C119.51 47.8166 120.466 48.1995 121.644 48.1995C123.021 48.1995 124.097 47.7087 124.862 46.734C125.626 45.754 126.015 44.4643 126.015 42.8612M129.743 42.7394C129.743 45.3189 128.978 47.3571 127.458 48.8557C126.093 50.1855 124.399 50.8522 122.38 50.8522C120.195 50.8522 118.627 50.135 117.677 48.6991V56.6604H114.014V40.3269C114.014 38.703 113.968 37.0407 113.88 35.3367H117.098L117.302 37.7457H117.371C118.591 35.932 120.443 35.0251 122.931 35.0251C124.871 35.0251 126.494 35.7336 127.795 37.1486C129.089 38.5672 129.743 40.4296 129.743 42.7394Z" fill="white"/>
</g>
<path fill-rule="evenodd" clip-rule="evenodd" d="M150.928 44.6034C150.928 46.3962 150.246 47.8513 148.896 48.9757C147.408 50.1993 145.334 50.8138 142.673 50.8138C140.216 50.8138 138.245 50.3751 136.757 49.5031L137.604 46.6921C139.21 47.5659 140.977 48.0027 142.894 48.0027C144.275 48.0027 145.347 47.719 146.114 47.1464C146.885 46.572 147.271 45.8096 147.271 44.854C147.271 44.0012 146.951 43.284 146.321 42.701C145.686 42.1196 144.638 41.5765 143.17 41.0787C139.166 39.7037 137.166 37.6968 137.166 35.0529C137.166 33.3262 137.874 31.9146 139.283 30.8059C140.694 29.7059 142.566 29.1524 144.892 29.1524C146.976 29.1524 148.707 29.4865 150.083 30.1514L149.165 32.9015C147.869 32.254 146.408 31.932 144.776 31.932C143.481 31.932 142.468 32.2245 141.744 32.8076C141.136 33.3262 140.826 33.9598 140.826 34.7135C140.826 35.5437 141.178 36.233 141.877 36.7726C142.489 37.2704 143.598 37.8134 145.198 38.3948C147.168 39.1258 148.611 39.9787 149.538 40.9534C150.469 41.9316 150.934 43.15 150.934 44.6034M163.063 37.8674H159.029V45.23C159.029 47.1063 159.74 48.041 161.164 48.041C161.82 48.041 162.365 47.9888 162.789 47.8844L162.893 50.443C162.174 50.6919 161.226 50.8172 160.05 50.8172C158.602 50.8172 157.474 50.4099 156.66 49.5988C155.846 48.7843 155.436 47.4231 155.436 45.5085V37.8552H153.035V35.3314H155.438V32.5534L159.033 31.5543V35.3314H163.067V37.8656L163.063 37.8674ZM177.432 42.875C177.432 41.486 177.107 40.2937 176.454 39.2964C175.685 38.0919 174.586 37.4897 173.165 37.4897C171.699 37.4897 170.573 38.0919 169.81 39.2964C169.152 40.2937 168.825 41.5069 168.825 42.9377C168.825 44.3301 169.15 45.5242 169.81 46.5198C170.601 47.7242 171.703 48.3265 173.136 48.3265C174.532 48.3265 175.628 47.7121 176.425 46.4884C177.094 45.4702 177.432 44.2675 177.432 42.875ZM181.228 42.7984C181.228 45.1308 180.501 47.0454 179.056 48.5423C177.54 50.0827 175.53 50.852 173.022 50.852C170.601 50.852 168.676 50.1123 167.24 48.638C165.81 47.1586 165.091 45.2961 165.091 43.0508C165.091 40.701 165.833 38.7742 167.309 37.2773C168.791 35.7804 170.785 35.0285 173.293 35.0285C175.71 35.0285 177.652 35.77 179.121 37.2443C180.526 38.6785 181.224 40.5287 181.224 42.7967M193.127 38.3025C192.746 38.2386 192.36 38.2071 191.972 38.2085C190.684 38.2085 189.69 38.6576 188.99 39.5557C188.378 40.346 188.076 41.3451 188.076 42.5495V50.5126H184.417V40.1162C184.417 38.3704 184.378 36.7743 184.309 35.3401H187.497L187.63 38.2434H187.732C188.12 37.2477 188.726 36.4436 189.561 35.8414C190.323 35.3153 191.252 35.0299 192.207 35.0285C192.542 35.0285 192.846 35.0494 193.117 35.0894L193.121 38.306L193.127 38.3025ZM206.002 41.3311C206.028 40.3303 205.787 39.4687 205.294 38.7377C204.658 37.8013 203.683 37.333 202.377 37.333C201.178 37.333 200.205 37.7891 199.463 38.7081C198.855 39.4356 198.492 40.3094 198.381 41.3276L206.002 41.3311ZM209.493 42.2049C209.493 42.8089 209.449 43.3189 209.359 43.7366H198.381C198.419 45.2335 198.954 46.3788 199.972 47.169C200.897 47.8722 202.094 48.2255 203.562 48.2255C205.187 48.2255 206.671 47.9906 208.005 47.5119L208.579 49.8495C207.021 50.4761 205.176 50.7894 203.057 50.7894C200.503 50.7894 198.498 50.0966 197.039 48.7146C195.586 47.3309 194.853 45.4702 194.853 43.1413C194.853 40.856 195.53 38.9518 196.888 37.4322C198.31 35.81 200.233 34.9989 202.648 34.9989C205.023 34.9989 206.82 35.81 208.04 37.4322C209.005 38.7168 209.493 40.3094 209.493 42.2014V42.2049ZM80.1984 17.6246L79.2482 14.9267C79.1488 14.6482 78.9652 14.0042 78.6823 12.9772H78.6478C78.5331 13.4193 78.3649 14.0651 78.1125 14.9267L77.1814 17.6246H80.1984ZM83.4772 21.9325H81.5654L80.5138 18.8952H76.866L75.868 21.9342H73.9982L77.6116 11.5952H79.8447L83.4772 21.9325ZM92.5204 14.4793L89.4518 21.9325H87.7025L84.7391 14.4793H86.6701L88.0543 18.4217C88.2875 19.0832 88.4864 19.7098 88.6355 20.3068H88.6871C88.8209 19.7707 89.0198 19.1406 89.2683 18.4217L90.6315 14.4776H92.5147L92.5204 14.4793ZM98.7914 18.2216C96.7954 18.2216 95.7954 18.6672 95.7954 19.7237C95.7954 20.5069 96.3117 20.8899 97.0286 20.8899C97.9463 20.8899 98.7933 20.2459 98.7933 19.3721V18.2233L98.7914 18.2216ZM99.0456 21.9342L98.9118 21.0761H98.8602C98.3115 21.7671 97.5123 22.103 96.4952 22.103C95.0422 22.103 94.0098 21.1684 94.0098 19.9099C94.0098 18.0684 95.7419 17.118 98.7397 17.118V16.9788C98.7397 15.9971 98.1738 15.5063 97.0573 15.5063C96.3075 15.494 95.5709 15.6868 94.9428 16.0598L94.5757 14.9702C95.327 14.5403 96.2581 14.3262 97.3594 14.3262C99.4739 14.3262 100.541 15.3531 100.541 17.4105V20.1536C100.541 20.909 100.575 21.4938 100.655 21.9359H99.0399L99.0456 21.9342Z" fill="white"/>
<mask id="mask3_12_629" style="mask-type:luminance" maskUnits="userSpaceOnUse" x="72" y="11" width="138" height="46">
<path d="M72.637 11.0574H209.489V56.6534H72.637V11.0591V11.0574Z" fill="white"/>
</mask>
<g mask="url(#mask3_12_629)">
<path fill-rule="evenodd" clip-rule="evenodd" d="M105.487 21.936H103.69V14.4794H105.487V21.936ZM104.554 13.2506C104.411 13.2508 104.27 13.225 104.139 13.1747C104.007 13.1243 103.888 13.0505 103.789 12.9574C103.689 12.8644 103.611 12.7542 103.559 12.6332C103.507 12.5122 103.483 12.383 103.487 12.2532C103.487 11.6893 103.971 11.2733 104.588 11.2733C105.204 11.2733 105.703 11.691 105.686 12.2567C105.686 12.8554 105.221 13.254 104.554 13.254V13.2506ZM110.481 21.936H108.683V11.0574H110.481V21.936ZM117.88 18.2216C115.878 18.2216 114.878 18.6672 114.878 19.7237C114.878 20.507 115.394 20.8899 116.111 20.8899C117.023 20.8899 117.874 20.2459 117.874 19.3721V18.2234L117.88 18.2216ZM118.128 21.9343L117.994 21.0762H117.945C117.394 21.7672 116.595 22.1031 115.578 22.1031C114.13 22.1031 113.096 21.1684 113.096 19.91C113.096 18.0685 114.828 17.1181 117.828 17.1181V16.9789C117.828 15.9972 117.26 15.5063 116.146 15.5063C115.343 15.5063 114.645 15.6908 114.031 16.0598L113.668 14.9685C114.417 14.5421 115.35 14.3245 116.45 14.3245C118.564 14.3245 119.633 15.3514 119.633 17.4123V20.1537C119.633 20.9073 119.665 21.4904 119.748 21.9343H118.128ZM126.552 15.6282C125.516 15.6282 124.567 16.4567 124.567 17.6072V18.9126C124.567 19.9396 125.418 20.7837 126.517 20.7837C127.867 20.7837 128.668 19.7707 128.668 18.1607C128.668 16.6569 127.833 15.6282 126.55 15.6282M126.913 22.1031C125.766 22.1031 124.915 21.6575 124.365 20.7837H124.33L124.225 21.9325H122.696C122.741 21.3372 122.759 20.6619 122.759 19.9256V11.054H124.56V15.5655H124.592C125.124 14.737 125.988 14.3227 127.173 14.3227C129.123 14.3227 130.488 15.8597 130.488 18.0998C130.488 20.4147 128.972 22.1031 126.907 22.1031M134.956 21.936H133.159V11.0574H134.956V21.936ZM143.097 17.4244C143.097 16.2757 142.466 15.4611 141.315 15.4611C140.279 15.4611 139.468 16.2896 139.346 17.4244H143.097ZM144.747 18.6046H139.346C139.384 20.0179 140.398 20.8151 141.895 20.8151C142.698 20.8151 143.428 20.6898 144.074 20.4617L144.355 21.6105C143.59 21.9186 142.692 22.0718 141.64 22.0718C139.111 22.0718 137.612 20.5992 137.612 18.3121C137.612 16.0285 139.145 14.3088 141.442 14.3088C143.501 14.3088 144.806 15.7222 144.806 17.8544C144.81 18.1416 144.793 18.4026 144.743 18.6028L144.747 18.6046ZM155.721 15.5359C154.421 15.5359 153.586 16.6551 153.586 18.2199C153.586 19.7516 154.44 20.8725 155.708 20.8725C156.97 20.8725 157.821 19.675 157.821 18.1851C157.821 16.6708 156.987 15.5342 155.723 15.5342M155.651 22.1031C153.286 22.1031 151.75 20.4774 151.75 18.2686C151.75 15.9676 153.318 14.3245 155.788 14.3245C158.115 14.3245 159.685 15.8736 159.685 18.1503C159.685 20.4826 158.069 22.1066 155.651 22.1066M169.359 21.9377H167.562V17.6559C167.562 16.3383 167.011 15.6769 165.927 15.6769C164.862 15.6769 164.126 16.5211 164.126 17.5045V21.9377H162.329V16.6116C162.329 15.9537 162.31 15.247 162.262 14.4811H163.845L163.929 15.6299H163.979C164.457 14.8293 165.445 14.3245 166.541 14.3245C168.242 14.3245 169.357 15.5203 169.357 17.468V21.9343L169.359 21.9377ZM181.126 15.7239H179.148V19.3443C179.148 20.2668 179.495 20.7263 180.193 20.7263C180.511 20.7263 180.778 20.695 180.996 20.6497L181.044 21.9082C180.694 22.03 180.226 22.0927 179.648 22.0927C178.228 22.0927 177.383 21.3721 177.383 19.4818V15.7222H176.203V14.4794H177.383V13.1131L179.148 12.6205V14.4794H181.126V15.7204V15.7239ZM190.653 21.9377H188.852V17.6908C188.852 16.354 188.302 15.6787 187.219 15.6787C186.286 15.6787 185.422 16.2617 185.422 17.4436V21.9412H183.621V11.0574H185.422V15.5359H185.461C186.023 14.7231 186.837 14.3245 187.889 14.3245C189.605 14.3245 190.653 15.5551 190.653 17.5028V21.9377ZM198.196 17.4297C198.196 16.2809 197.565 15.4628 196.414 15.4628C195.381 15.4628 194.569 16.2931 194.45 17.4297H198.197H198.196ZM199.845 18.608H194.446C194.481 20.0214 195.494 20.8186 196.993 20.8186C197.796 20.8186 198.526 20.6932 199.172 20.4652L199.455 21.614C198.691 21.9221 197.792 22.0753 196.741 22.0753C194.207 22.0753 192.71 20.6027 192.71 18.3156C192.71 16.032 194.24 14.3123 196.54 14.3123C198.605 14.3123 199.905 15.7256 199.905 17.8578C199.912 18.145 199.895 18.4061 199.847 18.6063L199.845 18.608Z" fill="white"/>
</g>
</g>
<defs>
<clipPath id="clip0_12_629">
<rect width="229.425" height="62.6606" fill="white" transform="translate(0.628174 0.873291)"/>
</clipPath>
</defs>
</svg>
