<svg width="230" height="64" viewBox="0 0 230 64" fill="none" xmlns="http://www.w3.org/2000/svg">
<g clip-path="url(#clip0_12_651)">
<path d="M224.002 0.366943H6.04813C2.88043 0.366943 0.3125 2.70478 0.3125 5.58866V57.8058C0.3125 60.6897 2.88043 63.0275 6.04813 63.0275H224.002C227.17 63.0275 229.738 60.6897 229.738 57.8058V5.58866C229.738 2.70478 227.17 0.366943 224.002 0.366943Z" fill="#151515"/>
<path d="M48.033 25.7984L22.5534 12.9878C21.8307 12.6275 21.1654 12.5405 20.6262 12.6971L41.4943 31.7738L48.033 25.7949" fill="url(#paint0_linear_12_651)"/>
<path fill-rule="evenodd" clip-rule="evenodd" d="M48.0654 37.7856L56.7644 33.4133C58.5272 32.5221 58.5272 31.074 56.7644 30.1863L48.0329 25.8L41.4943 31.7772L48.0654 37.7856Z" fill="url(#paint1_linear_12_651)"/>
<path d="M20.6262 12.697C19.848 12.9163 19.3452 13.6369 19.3452 14.7161L19.3529 48.8765C19.3529 49.9487 19.8385 50.6554 20.5918 50.8921L41.4943 31.7772L20.6262 12.697Z" fill="url(#paint2_linear_12_651)"/>
<path d="M20.5918 50.8957C21.1348 51.0628 21.8154 50.9827 22.5534 50.6137L48.0616 37.7857L41.4943 31.7808L20.5918 50.8957Z" fill="url(#paint3_linear_12_651)"/>
<path fill-rule="evenodd" clip-rule="evenodd" d="M78.6459 10.9443C80.2519 10.9443 81.3646 11.6023 82.0873 12.2759L80.9593 13.4299C80.378 12.9164 79.7414 12.5631 78.665 12.5631C76.6155 12.5631 75.2389 14.0077 75.2389 16.3645C75.2389 18.756 76.474 20.2007 78.7874 20.2007C79.424 20.2007 80.0588 20.0406 80.4316 19.7342V17.4715H78.2559V15.9502H82.2651V20.5697C81.4716 21.2433 80.1123 21.8194 78.5407 21.8194C75.4664 21.8194 73.1359 19.8961 73.1359 16.415C73.1359 12.9808 75.5372 10.9443 78.6421 10.9443M89.8609 16.9893C89.8609 15.7396 89.2817 14.9877 88.0982 14.9877C87.0734 14.9877 86.1901 15.6752 86.0143 16.9893H89.8609ZM88.0447 13.5604C90.3925 13.5604 91.6294 15.0973 91.6294 17.2939C91.6294 17.649 91.5912 17.9675 91.5415 18.1607H86.0315C86.2035 19.588 87.1977 20.3922 88.5934 20.3922C89.3314 20.3922 89.9661 20.1833 90.6008 19.8143L91.2891 20.9683C90.4613 21.4643 89.4212 21.8177 88.3257 21.8177C85.9225 21.8177 84.0527 20.2947 84.0527 17.696C84.0546 15.1269 86.0143 13.5604 88.0447 13.5604ZM93.6082 15.2105H92.3751V13.8319L93.7172 13.7519L93.9657 11.6005H95.6597V13.7519H97.866V15.2105H95.6597V18.9631C95.6597 19.8926 96.0459 20.3417 96.8775 20.3417C97.1777 20.3417 97.5314 20.2616 97.7761 20.1676L98.1317 21.5287C97.6538 21.6732 97.0534 21.8177 96.3651 21.8177C94.3519 21.8177 93.612 20.6619 93.612 18.9631V15.2105H93.6082Z" fill="#E7E7E7"/>
<mask id="mask0_12_651" style="mask-type:luminance" maskUnits="userSpaceOnUse" x="70" y="10" width="144" height="47">
<path d="M70.6466 10.2708H213.926V56.9181H70.6466V10.2708Z" fill="#E7E7E7"/>
</mask>
<g mask="url(#mask0_12_651)">
<path fill-rule="evenodd" clip-rule="evenodd" d="M103.309 13.7519H105.339V21.6262H103.309V13.7519ZM103.08 11.329C103.08 10.7024 103.609 10.2708 104.332 10.2708C105.058 10.2708 105.584 10.7059 105.584 11.329C105.584 11.9382 105.057 12.3734 104.33 12.3734C103.603 12.3734 103.076 11.9382 103.076 11.329H103.08ZM108.238 15.2105H107.001V13.832L108.345 13.7519L108.593 11.6005H110.287V13.7519H112.494V15.2105H110.287V18.9632C110.287 19.8926 110.674 20.3417 111.505 20.3417C111.807 20.3417 112.159 20.2616 112.408 20.1676L112.761 21.5288C112.283 21.6732 111.683 21.8177 110.995 21.8177C108.982 21.8177 108.242 20.662 108.242 18.9632V15.2105H108.238ZM121.483 20.3104C122.757 20.3104 123.533 19.266 123.533 17.696C123.533 16.1086 122.757 15.0678 121.483 15.0678C120.212 15.0678 119.457 16.1086 119.457 17.696C119.457 19.2678 120.212 20.3104 121.483 20.3104ZM121.483 13.5569C123.655 13.5569 125.617 15.066 125.617 17.696C125.617 20.3104 123.655 21.8212 121.483 21.8212C119.329 21.8212 117.373 20.3104 117.373 17.696C117.373 15.0678 119.329 13.5587 121.483 13.5587M127.634 13.7519H129.311L129.452 14.8102H129.521C130.299 14.1209 131.184 13.5569 132.366 13.5569C134.22 13.5569 135.031 14.697 135.031 16.6865V21.6262H133V16.9267C133 15.6265 132.599 15.1478 131.643 15.1478C130.882 15.1478 130.389 15.482 129.662 16.1226V21.6262H127.636V13.7519H127.634Z" fill="#E7E7E7"/>
</g>
<mask id="mask1_12_651" style="mask-type:luminance" maskUnits="userSpaceOnUse" x="70" y="10" width="144" height="47">
<path d="M70.6466 10.2708H213.926V56.9181H70.6466V10.2708Z" fill="white"/>
</mask>
<g mask="url(#mask1_12_651)">
<path fill-rule="evenodd" clip-rule="evenodd" d="M174.427 37.6534C172.985 37.6534 171.942 38.0189 171.297 38.7447C170.653 39.4688 170.322 40.6246 170.303 42.2085V42.6436C170.303 44.4434 170.634 45.7314 171.297 46.5112C171.957 47.2875 173.018 47.6773 174.481 47.6773C175.7 47.6773 176.66 47.2248 177.348 46.3284C178.042 45.4338 178.386 44.1945 178.386 42.6175C178.386 41.0197 178.042 39.7908 177.346 38.9362C176.658 38.0798 175.683 37.6517 174.425 37.6517M174.737 49.3013C173.815 49.3013 172.978 49.1481 172.217 48.84C171.452 48.529 170.792 48.0382 170.305 47.418H170.146C170.251 48.1664 170.303 48.8766 170.303 49.5467V54.8276H168.166V36.2401H169.905L170.2 37.9946H170.303C170.854 37.2914 171.492 36.7883 172.226 36.4733C173.015 36.1514 173.872 35.9921 174.737 36.0068C176.61 36.0068 178.056 36.5864 179.077 37.7474C180.09 38.9101 180.599 40.5445 180.599 42.6436C180.599 44.7497 180.082 46.3858 179.05 47.552C178.012 48.7182 176.576 49.3013 174.737 49.3013ZM185.554 49.0681H183.413V30.8547H185.554V49.0681ZM193.022 47.7C194.354 47.7 195.402 47.3693 196.157 46.7078C196.918 46.0412 197.299 45.1117 197.299 43.9177V42.7637L195.157 42.8438C193.456 42.8995 192.232 43.1397 191.483 43.5644C190.73 43.9891 190.355 44.654 190.355 45.5486C190.355 46.2501 190.584 46.7844 191.056 47.15C191.525 47.519 192.179 47.7 193.022 47.7ZM197.851 49.0698L197.431 47.2457H197.326C196.618 48.0516 195.916 48.5946 195.215 48.8766C194.517 49.1603 193.641 49.303 192.596 49.303C191.194 49.303 190.097 48.9758 189.301 48.3214C188.506 47.6669 188.108 46.7374 188.108 45.5243C188.108 42.9343 190.387 41.5732 194.953 41.4513L197.348 41.3817V40.581C197.348 39.5785 197.109 38.8335 196.632 38.3531C196.154 37.8745 195.389 37.6343 194.343 37.6343C193.167 37.6343 191.838 37.965 190.353 38.6177L189.693 37.1295C190.389 36.7883 191.152 36.5203 191.98 36.3219C192.795 36.1292 193.634 36.0316 194.477 36.0312C196.159 36.0312 197.406 36.3689 198.218 37.0494C199.029 37.7282 199.436 38.8144 199.436 40.313V49.0681H197.849L197.851 49.0698ZM200.681 36.2401H202.975L206.069 43.5574C206.743 45.2284 207.168 46.4328 207.33 47.1743H207.432C207.546 46.774 207.776 46.0952 208.139 45.1291C208.493 44.1666 209.657 41.2007 211.632 36.2383H213.926L207.86 50.8469C207.256 52.2916 206.554 53.3151 205.749 53.9208C204.946 54.5265 203.96 54.8259 202.793 54.8259C202.14 54.8259 201.493 54.7562 200.859 54.6257V53.0679C201.331 53.1654 201.86 53.2106 202.446 53.2106C203.912 53.2106 204.96 52.4587 205.587 50.9653L206.378 49.1377L200.681 36.2348V36.2401ZM133.868 44.2467C134.549 43.627 134.608 42.7742 134.608 42.2885C134.608 40.3565 133.337 37.3505 130.886 37.3505C130.117 37.3505 129.29 37.7021 128.817 38.2382C128.314 38.8004 128.167 39.5263 128.167 40.2225C128.167 42.0205 129.322 45.0021 131.861 45.0021C132.61 44.9856 133.325 44.7164 133.868 44.2467ZM133.014 49.3466C132.779 49.3187 132.631 49.3187 132.337 49.3187C132.069 49.3187 130.473 49.3709 129.234 49.7538C128.584 49.9627 126.691 50.6102 126.691 52.5127C126.691 54.4151 128.733 55.7849 131.892 55.7849C134.729 55.7849 136.235 54.5526 136.235 52.8886C136.235 51.517 135.26 50.7947 133.016 49.3466H133.014ZM135.111 37.4323C135.794 37.9406 137.209 39.0163 137.209 41.0527C137.209 43.0405 135.966 43.9804 134.729 44.8646C134.346 45.2092 133.899 45.5921 133.899 46.1822C133.899 46.7705 134.345 47.0925 134.67 47.3345L135.734 48.0829C137.035 49.0802 138.214 49.9906 138.214 51.8425C138.214 54.3664 135.522 56.9163 130.444 56.9163C126.162 56.9163 124.097 55.0608 124.097 53.0766C124.097 52.1088 124.623 50.7442 126.372 49.8008C128.2 48.7809 130.683 48.6486 132.012 48.565C131.595 48.0846 131.125 47.5729 131.125 46.7461C131.125 46.2849 131.272 46.0151 131.419 45.6931C131.094 45.7209 130.769 45.7453 130.473 45.7453C127.345 45.7453 125.573 43.6253 125.573 41.5331C125.573 40.3008 126.192 38.931 127.462 37.9389C129.144 36.6787 131.152 36.4628 132.752 36.4628H138.837L136.945 37.4289H135.113L135.111 37.4323ZM120.199 46.7479C120.906 45.8915 121.084 44.8158 121.084 43.7715C121.084 41.4148 119.851 36.9137 116.189 36.9137C115.218 36.9137 114.245 37.2618 113.538 37.8257C112.39 38.7656 112.18 39.944 112.18 41.098C112.18 43.7489 113.626 48.116 117.195 48.116C118.342 48.116 119.527 47.606 120.2 46.7496M116.516 48.9219C111.828 48.9219 109.322 45.5974 109.322 42.5949C109.322 39.0876 112.476 36.0851 116.96 36.0851C121.294 36.0851 124.009 39.166 124.009 42.4104C124.009 45.5713 121.325 48.9201 116.514 48.9201M104.215 46.7479C104.923 45.8915 105.099 44.8158 105.099 43.7715C105.099 41.4148 103.86 36.9137 100.204 36.9137C99.2291 36.9137 98.254 37.2618 97.5505 37.8257C96.3957 38.7656 96.193 39.944 96.193 41.098C96.193 43.7489 97.6365 48.116 101.206 48.116C102.357 48.116 103.535 47.606 104.215 46.7496M100.529 48.9219C95.8374 48.9219 93.3291 45.5974 93.3291 42.5949C93.3291 39.0876 96.4875 36.0851 100.971 36.0851C105.307 36.0851 108.02 39.166 108.02 42.4104C108.02 45.5713 105.338 48.9201 100.531 48.9201M91.075 48.4989L86.8382 49.3866C85.1118 49.6303 83.5689 49.8426 81.9438 49.8426C73.761 49.8426 70.6447 44.3772 70.6447 40.0954C70.6447 34.8685 75.0611 30.021 82.6245 30.021C84.157 30.0234 85.6823 30.2131 87.1594 30.5849C89.3849 31.1524 90.423 31.8521 91.073 32.2559L88.6125 34.3829L87.5762 34.5987L88.318 33.5195C87.3086 32.6319 85.4693 30.9888 81.9706 30.9888C77.2865 30.9888 73.7591 34.2262 73.7591 38.9379C73.7591 43.9995 77.7874 48.7687 84.2515 48.7687C86.1519 48.7687 87.1288 48.4153 88.0179 48.0933V43.7593L83.5441 43.9734L85.9148 42.8107H92.201L91.4287 43.4895C91.2183 43.6497 91.1897 43.7019 91.1323 43.9195C91.1017 44.1597 91.0711 44.9429 91.0711 45.2075V48.4972L91.075 48.4989Z" fill="white"/>
</g>
<mask id="mask2_12_651" style="mask-type:luminance" maskUnits="userSpaceOnUse" x="70" y="10" width="144" height="47">
<path d="M70.6466 10.2708H213.926V56.9181H70.6466V10.2708Z" fill="white"/>
</mask>
<g mask="url(#mask2_12_651)">
<path fill-rule="evenodd" clip-rule="evenodd" d="M144.483 47.7225C143.504 47.6407 143.298 47.4823 143.298 46.4276V31.1836L143.317 31.0096C143.436 30.0662 143.73 29.9061 144.655 29.4187H140.411L138.186 30.3934H140.451V47.0194C140.451 47.5589 140.336 47.6407 139.652 48.4466H144.9L145.999 47.86C145.495 47.8009 144.99 47.7765 144.485 47.7208M153.781 39.9944C154.341 39.8099 154.633 39.6463 154.633 39.2756C154.633 38.2068 153.308 36.9745 151.718 36.9745C150.538 36.9745 148.334 37.8048 148.334 40.6941C148.334 41.1467 148.391 41.6288 148.424 42.1092L153.777 39.9927L153.781 39.9944ZM156.553 47.9697C156.228 48.1264 155.903 48.3178 155.582 48.4484C154.607 48.8539 153.605 48.9583 152.72 48.9583C151.783 48.9583 150.307 48.9027 148.806 47.914C146.714 46.5772 145.804 44.2762 145.804 42.2693C145.804 38.1216 149.517 36.0903 152.548 36.0903C153.607 36.0903 154.696 36.334 155.584 36.8388C157.052 37.7212 157.434 38.87 157.641 39.4879L150.724 42.0291L148.454 42.191C149.19 45.5851 151.724 47.5659 154.521 47.5659C156.023 47.5659 157.113 47.0838 158.115 46.6312L156.555 47.9714L156.553 47.9697ZM159.392 36.2748V38.0397H159.155V36.2748H158.513V36.092H160.036V36.2748H159.392ZM162.04 38.0397V36.2574H162.034L161.432 38.0397H161.247L160.642 36.2591H160.637V38.0415H160.419V36.092H160.788L161.335 37.669H161.338L161.877 36.0938H162.248V38.0432H162.038L162.04 38.0397Z" fill="white"/>
</g>
</g>
<defs>
<linearGradient id="paint0_linear_12_651" x1="547.247" y1="-660.677" x2="1265.91" y2="1981.85" gradientUnits="userSpaceOnUse">
<stop stop-color="#19A3B4"/>
<stop offset="0.34817" stop-color="#5BC3AF"/>
<stop offset="0.92234" stop-color="#C9F7A6"/>
<stop offset="1" stop-color="#D7FEA5"/>
</linearGradient>
<linearGradient id="paint1_linear_12_651" x1="-202.378" y1="-1344.41" x2="625.583" y2="1580.23" gradientUnits="userSpaceOnUse">
<stop stop-color="#FC227C"/>
<stop offset="1" stop-color="#FEEB7B"/>
</linearGradient>
<linearGradient id="paint2_linear_12_651" x1="642.864" y1="-553.125" x2="1865.25" y2="2903.51" gradientUnits="userSpaceOnUse">
<stop stop-color="#0E4DA0"/>
<stop offset="1" stop-color="#6BFED4"/>
</linearGradient>
<linearGradient id="paint3_linear_12_651" x1="3653.34" y1="347.897" x2="1262.71" y2="3323.2" gradientUnits="userSpaceOnUse">
<stop stop-color="#FC472E"/>
<stop offset="0.00332" stop-color="#FC472E"/>
<stop offset="1" stop-color="#893CD8"/>
</linearGradient>
<clipPath id="clip0_12_651">
<rect width="229.425" height="62.6606" fill="white" transform="translate(0.3125 0.366943)"/>
</clipPath>
</defs>
</svg>
